<?xml version="1.0" encoding="utf-8"?>
<!-- Generator: Adobe Illustrator 26.1.0, SVG Export Plug-In . SVG Version: 6.00 Build 0)  -->
<svg version="1.1" id="Layer_1" xmlns="http://www.w3.org/2000/svg" xmlns:xlink="http://www.w3.org/1999/xlink" x="0px" y="0px"
	 viewBox="0 0 48 48" style="enable-background:new 0 0 48 48;" xml:space="preserve">
<style type="text/css">
	.st0{fill:#24DA77;}
	.st1{fill:#FFFFFF;}
</style>
<g>
	<path class="st0" d="M17.4,4.4c4.1-2.3,9.1-2.3,13.2,0l7.2,4.1c4.1,2.3,6.6,6.7,6.6,11.4v8.2c0,4.7-2.5,9.1-6.6,11.4l-7.2,4.1
		c-4.1,2.3-9.1,2.3-13.2,0l-7.2-4.1c-4-2.3-6.6-6.7-6.6-11.4v-8.2c0-4.7,2.6-9.1,6.6-11.4L17.4,4.4z"/>
	<g>
		<path class="st1" d="M35,28.4c-0.6,1.3-1.5,2.6-2.5,3.5c-1,1-2.3,1.8-3.8,2.3s-3.1,0.9-4.8,0.9h-8.8V12.7h8.8
			c1.8,0,3.4,0.3,4.8,0.9c1.5,0.6,2.8,1.3,3.8,2.3c1,1,1.9,2.2,2.5,3.5c0.6,1.3,0.9,2.8,0.9,4.4l0,0C35.9,25.6,35.6,27.1,35,28.4z
			 M30.7,24c0-1-0.1-1.9-0.4-2.8C30,20.3,29.6,19.6,29,19c-0.6-0.6-1.3-1-2.2-1.5c-0.9-0.4-1.8-0.4-2.8-0.4h-3.8v13.6H24
			c1,0,1.9-0.1,2.8-0.4c0.9-0.3,1.6-0.7,2.2-1.3c0.6-0.6,1-1.3,1.3-2.2C30.6,25.9,30.7,25,30.7,24L30.7,24z"/>
	</g>
</g>
</svg>
