<?xml version="1.0" encoding="utf-8"?>
<!-- Generator: Adobe Illustrator 26.1.0, SVG Export Plug-In . SVG Version: 6.00 Build 0)  -->
<svg version="1.1" id="Layer_1" xmlns="http://www.w3.org/2000/svg" xmlns:xlink="http://www.w3.org/1999/xlink" x="0px" y="0px"
	 viewBox="0 0 89 32" style="enable-background:new 0 0 89 32;" xml:space="preserve">
<style type="text/css">
	.st0{fill:#14A854;}
	.st1{fill:#181C32;}
	.st2{fill:#24DA77;}
	.st3{fill:#FFFFFF;}
</style>
<g>
	<path class="st0" d="M38.4,18.9V7.2H41v9.4h5.8v2.3C46.8,18.9,38.4,18.9,38.4,18.9z"/>
	<path class="st0" d="M60.3,15.4c-0.3,0.7-0.7,1.4-1.3,1.9c-0.6,0.6-1.2,1-2,1.3s-1.6,0.5-2.5,0.5s-1.7-0.2-2.5-0.5s-1.4-0.7-2-1.3
		c-0.6-0.5-1-1.2-1.3-1.9s-0.5-1.5-0.5-2.4l0,0c0-0.8,0.2-1.6,0.5-2.4C49,9.9,49.5,9.3,50,8.7s1.2-1,2-1.3s1.6-0.5,2.5-0.5
		s1.7,0.2,2.5,0.5s1.4,0.7,2,1.3c0.6,0.5,1,1.2,1.3,1.9s0.5,1.5,0.5,2.4l0,0C60.7,13.9,60.6,14.6,60.3,15.4z M58,13
		c0-0.5-0.1-1-0.3-1.4s-0.4-0.8-0.7-1.2c-0.3-0.3-0.7-0.6-1.1-0.8c-0.4-0.2-0.9-0.3-1.4-0.3s-1,0.1-1.4,0.3s-0.8,0.5-1.1,0.8
		s-0.5,0.7-0.7,1.2C51,12,51,12.5,51,13l0,0c0,0.5,0.1,1,0.3,1.4s0.4,0.8,0.7,1.2s0.7,0.6,1.1,0.8c0.4,0.2,0.9,0.3,1.4,0.3
		s1-0.1,1.4-0.3c0.4-0.2,0.8-0.5,1.1-0.8s0.5-0.7,0.7-1.2C57.9,14,58,13.6,58,13L58,13z"/>
	<path class="st0" d="M71.5,18.5c-0.8,0.4-1.8,0.5-2.9,0.5c-0.9,0-1.8-0.2-2.5-0.5c-0.8-0.3-1.4-0.7-1.9-1.3c-0.5-0.5-1-1.2-1.3-1.9
		s-0.5-1.5-0.5-2.4l0,0c0-0.8,0.2-1.6,0.5-2.4c0.3-0.7,0.7-1.4,1.3-1.9s1.2-1,1.9-1.3c0.7-0.3,1.6-0.5,2.5-0.5c0.5,0,1,0,1.4,0.1
		s0.8,0.2,1.2,0.3c0.4,0.1,0.7,0.3,1,0.5c0.4,0.4,0.8,0.6,1.1,0.9l-1.6,2c-0.3-0.3-0.5-0.4-0.7-0.6c-0.2-0.1-0.5-0.3-0.7-0.4
		c-0.2-0.1-0.5-0.2-0.8-0.2s-0.6-0.1-0.9-0.1c-0.5,0-0.9,0.1-1.3,0.3s-0.8,0.5-1.1,0.8c-0.3,0.3-0.5,0.7-0.7,1.2s-0.3,0.9-0.3,1.4
		l0,0c0,0.5,0.1,1,0.3,1.5c0.2,0.5,0.4,0.8,0.7,1.2c0.3,0.4,0.7,0.6,1.1,0.8c0.4,0.2,0.9,0.3,1.4,0.3c1,0,1.8-0.2,2.4-0.7v-1.7h-2.6
		v-2.2h5.1v5.1C73.1,17.7,72.4,18.2,71.5,18.5z"/>
	<path class="st0" d="M87.6,15.4c-0.3,0.7-0.7,1.4-1.3,1.9c-0.6,0.6-1.2,1-2,1.3s-1.6,0.5-2.5,0.5s-1.7-0.2-2.5-0.5s-1.4-0.7-2-1.3
		c-0.6-0.5-1-1.2-1.3-1.9s-0.5-1.5-0.5-2.4l0,0c0-0.8,0.2-1.6,0.5-2.4c0.3-0.7,0.7-1.4,1.3-1.9s1.2-1,2-1.3s1.6-0.5,2.5-0.5
		s1.7,0.2,2.5,0.5s1.4,0.7,2,1.3c0.6,0.5,1,1.2,1.3,1.9s0.5,1.5,0.5,2.4l0,0C88.1,13.9,88,14.6,87.6,15.4z M85.4,13
		c0-0.5-0.1-1-0.3-1.4c-0.2-0.4-0.4-0.8-0.7-1.2c-0.3-0.3-0.7-0.6-1.1-0.8c-0.5-0.2-0.9-0.3-1.4-0.3s-1,0.1-1.4,0.3
		s-0.8,0.5-1.1,0.8s-0.5,0.7-0.7,1.2c-0.2,0.4-0.3,0.9-0.3,1.4l0,0c0,0.5,0.1,1,0.3,1.4c0.2,0.4,0.4,0.8,0.7,1.2s0.7,0.6,1.1,0.8
		c0.4,0.2,0.9,0.3,1.4,0.3s1-0.1,1.4-0.3c0.4-0.2,0.8-0.5,1.1-0.8c0.3-0.3,0.5-0.7,0.7-1.2C85.3,14,85.4,13.6,85.4,13L85.4,13z"/>
	<g>
		<path class="st1" d="M43.3,24.8c-0.1,0.3-0.3,0.6-0.5,0.8S42.3,26,42,26.1s-0.7,0.2-1.1,0.2H39v-4.9h1.9c0.4,0,0.7,0.1,1.1,0.2
			c0.3,0.1,0.6,0.3,0.8,0.5s0.4,0.5,0.5,0.8s0.2,0.6,0.2,1l0,0C43.5,24.2,43.4,24.5,43.3,24.8z M42.4,23.8c0-0.2,0-0.4-0.1-0.6
			s-0.2-0.3-0.3-0.5s-0.3-0.2-0.5-0.3s-0.4-0.1-0.6-0.1h-0.8v3h0.8c0.2,0,0.4,0,0.6-0.1s0.3-0.2,0.5-0.3s0.2-0.3,0.3-0.5
			C42.3,24.3,42.4,24.1,42.4,23.8L42.4,23.8z"/>
		<path class="st1" d="M48.3,26.3l-0.4-1.1h-2.1l-0.5,1.1h-1.1l2.1-4.9h1l2.1,4.9H48.3z M46.8,22.6l-0.7,1.6h1.3L46.8,22.6z"/>
		<path class="st1" d="M53.8,25.5c-0.1,0.2-0.2,0.3-0.4,0.5c-0.2,0.1-0.3,0.2-0.6,0.3c-0.2,0.1-0.5,0.1-0.7,0.1
			c-0.4,0-0.7-0.1-1.1-0.2c-0.4-0.1-0.7-0.3-1-0.6l0.6-0.8c0.2,0.2,0.5,0.3,0.7,0.4s0.5,0.2,0.8,0.2c0.2,0,0.4,0,0.5-0.1
			s0.2-0.2,0.2-0.3l0,0c0-0.1,0-0.1,0-0.2s-0.1-0.1-0.1-0.2c-0.1,0-0.2-0.1-0.3-0.1s-0.4-0.1-0.6-0.2s-0.5-0.1-0.7-0.2
			s-0.4-0.2-0.5-0.3c-0.1-0.1-0.2-0.2-0.3-0.4s-0.1-0.4-0.1-0.6l0,0c0-0.2,0-0.4,0.1-0.6s0.2-0.3,0.4-0.5c0.2-0.1,0.3-0.2,0.5-0.3
			c0.2-0.1,0.4-0.1,0.7-0.1c0.4,0,0.7,0.1,1,0.2s0.6,0.3,0.8,0.5l-0.6,0.8c-0.2-0.1-0.4-0.3-0.6-0.4c-0.2-0.1-0.4-0.1-0.6-0.1
			s-0.4,0-0.5,0.1s-0.2,0.2-0.2,0.3l0,0c0,0.1,0,0.1,0,0.2s0.1,0.1,0.2,0.2c0.1,0,0.2,0.1,0.3,0.1s0.3,0.1,0.5,0.1
			c0.2,0.1,0.5,0.1,0.7,0.2s0.4,0.2,0.5,0.3c0.1,0.1,0.2,0.2,0.3,0.4c0.1,0.2,0.1,0.3,0.1,0.6l0,0C53.9,25.1,53.8,25.3,53.8,25.5z"
			/>
		<path class="st1" d="M58.1,26.3v-2h-2v2H55v-4.9h1.1v1.9h2v-1.9h1.1v4.9H58.1z"/>
		<path class="st1" d="M64.5,25.5c-0.1,0.2-0.2,0.3-0.4,0.4c-0.2,0.1-0.4,0.2-0.6,0.3c-0.1,0.1-0.4,0.1-0.7,0.1h-2.3v-4.9h2.3
			c0.5,0,0.9,0.1,1.2,0.3c0.3,0.2,0.4,0.5,0.4,0.9l0,0c0,0.1,0,0.3-0.1,0.4s-0.1,0.2-0.1,0.3c-0.1,0.1-0.1,0.2-0.2,0.2
			c-0.1,0.1-0.2,0.1-0.2,0.2c0.3,0.1,0.5,0.3,0.7,0.4c0.2,0.2,0.2,0.4,0.2,0.8l0,0C64.7,25.2,64.6,25.4,64.5,25.5z M63.3,22.8
			c0-0.2-0.1-0.3-0.2-0.4c-0.1,0-0.3-0.1-0.5-0.1h-1.1v1h1c0.2,0,0.4,0,0.6-0.1C63.2,23.2,63.3,23,63.3,22.8L63.3,22.8z M63.6,24.8
			c0-0.2-0.1-0.3-0.2-0.4c-0.1-0.1-0.3-0.1-0.6-0.1h-1.2v1h1.3c0.2,0,0.4,0,0.6-0.1C63.5,25.1,63.6,25,63.6,24.8L63.6,24.8z"/>
		<path class="st1" d="M70.5,24.8c-0.1,0.3-0.3,0.6-0.5,0.8c-0.2,0.2-0.5,0.4-0.8,0.5s-0.7,0.2-1,0.2s-0.7-0.1-1-0.2
			s-0.6-0.3-0.8-0.5s-0.4-0.5-0.5-0.8s-0.2-0.6-0.2-1l0,0c0-0.3,0.1-0.7,0.2-1s0.3-0.6,0.5-0.8c0.2-0.2,0.5-0.4,0.8-0.5
			s0.7-0.2,1-0.2c0.4,0,0.7,0.1,1,0.2s0.6,0.3,0.8,0.5c0.2,0.2,0.4,0.5,0.5,0.8s0.2,0.6,0.2,1l0,0C70.7,24.2,70.7,24.5,70.5,24.8z
			 M69.6,23.8c0-0.2,0-0.4-0.1-0.6s-0.2-0.3-0.3-0.5c-0.1-0.1-0.3-0.3-0.5-0.3c-0.2-0.1-0.4-0.1-0.6-0.1c-0.2,0-0.4,0-0.6,0.1
			s-0.3,0.2-0.5,0.3c-0.1,0.1-0.2,0.3-0.3,0.5s-0.1,0.4-0.1,0.6l0,0c0,0.2,0,0.4,0.1,0.6s0.2,0.4,0.3,0.5c0.1,0.1,0.3,0.3,0.5,0.3
			c0.2,0.1,0.4,0.1,0.6,0.1s0.4,0,0.6-0.1s0.3-0.2,0.5-0.3c0.1-0.1,0.2-0.3,0.3-0.5C69.6,24.3,69.6,24.1,69.6,23.8L69.6,23.8z"/>
		<path class="st1" d="M75.5,26.3l-0.4-1.1H73l-0.5,1.1h-1.1l2.1-4.9h1l2.1,4.9H75.5z M74,22.6l-0.7,1.6h1.3L74,22.6z"/>
		<path class="st1" d="M80.5,26.3l-1.1-1.6h-0.8v1.6h-1.1v-4.9h2.2c0.6,0,1,0.1,1.4,0.4c0.3,0.3,0.5,0.7,0.5,1.2l0,0
			c0,0.4-0.1,0.7-0.3,1c-0.2,0.2-0.4,0.4-0.8,0.5l1.2,1.8H80.5z M80.6,23.1c0-0.2-0.1-0.4-0.2-0.5s-0.4-0.2-0.6-0.2h-1.1v1.4h1.1
			c0.3,0,0.5-0.1,0.6-0.2C80.5,23.4,80.6,23.3,80.6,23.1L80.6,23.1z"/>
		<path class="st1" d="M87.1,24.8c-0.1,0.3-0.3,0.6-0.5,0.8c-0.2,0.2-0.5,0.4-0.8,0.5s-0.7,0.2-1.1,0.2h-1.9v-4.9h1.9
			c0.4,0,0.7,0.1,1.1,0.2c0.3,0.1,0.6,0.3,0.8,0.5c0.2,0.2,0.4,0.5,0.5,0.8s0.2,0.6,0.2,1l0,0C87.3,24.2,87.2,24.5,87.1,24.8z
			 M86.2,23.8c0-0.2,0-0.4-0.1-0.6s-0.2-0.3-0.3-0.5s-0.3-0.2-0.5-0.3c-0.2-0.1-0.4-0.1-0.6-0.1h-0.8v3h0.8c0.2,0,0.4,0,0.6-0.1
			s0.3-0.2,0.5-0.3s0.2-0.3,0.3-0.5C86.1,24.3,86.2,24.1,86.2,23.8L86.2,23.8z"/>
	</g>
</g>
<path class="st2" d="M11.5,3.2c2.8-1.6,6.2-1.6,9,0L25.4,6c2.8,1.6,4.5,4.6,4.5,7.8v5.6c0,3.2-1.7,6.2-4.5,7.8L20.5,30
	c-2.8,1.6-6.2,1.6-9,0l-4.9-2.8c-2.8-1.6-4.5-4.6-4.5-7.8v-5.6c0-3.2,1.7-6.2,4.5-7.8L11.5,3.2z"/>
<g>
	<path class="st3" d="M24,19.6c-0.4,0.9-1,1.8-1.7,2.4c-0.7,0.7-1.6,1.2-2.6,1.6c-1,0.4-2.1,0.6-3.3,0.6h-6V8.9h6
		c1.2,0,2.3,0.2,3.3,0.6c1,0.4,1.9,0.9,2.6,1.6c0.7,0.7,1.3,1.5,1.7,2.4c0.4,0.9,0.6,1.9,0.6,3v0C24.6,17.7,24.4,18.7,24,19.6z
		 M21.1,16.6c0-0.7-0.1-1.3-0.3-1.9s-0.5-1.1-0.9-1.5c-0.4-0.4-0.9-0.7-1.5-1s-1.2-0.3-1.9-0.3h-2.6v9.3h2.6c0.7,0,1.3-0.1,1.9-0.3
		c0.6-0.2,1.1-0.5,1.5-0.9c0.4-0.4,0.7-0.9,0.9-1.5S21.1,17.3,21.1,16.6L21.1,16.6z"/>
</g>
</svg>
