<svg version="1.1" id="Layer_1" xmlns="http://www.w3.org/2000/svg" xmlns:xlink="http://www.w3.org/1999/xlink" x="0px" y="0px"
	 viewBox="0 0 89 32" style="enable-background:new 0 0 89 32;width:100% !important;height:50px;" xml:space="preserve">
	<style type="text/css">
		.st0{fill:#14A854;}
		.st1{fill:#181C32;}
		.st2{fill:#24DA77;}
	</style>
	<g>
		<path class="st0" d="M38.4,18.6V6.9H41v9.4h5.8v2.3H38.4z"/>
		<path class="st0" d="M60.3,15.1c-0.3,0.7-0.7,1.4-1.3,1.9c-0.6,0.6-1.2,1-2,1.3c-0.8,0.3-1.6,0.5-2.5,0.5s-1.7-0.2-2.5-0.5
			s-1.4-0.7-2-1.3c-0.6-0.5-1-1.2-1.3-1.9c-0.3-0.7-0.5-1.5-0.5-2.4v0c0-0.8,0.2-1.6,0.5-2.4C49,9.6,49.5,9,50,8.4s1.2-1,2-1.3
			c0.8-0.3,1.6-0.5,2.5-0.5c0.9,0,1.7,0.2,2.5,0.5s1.4,0.7,2,1.3c0.6,0.5,1,1.2,1.3,1.9c0.3,0.7,0.5,1.5,0.5,2.4v0
			C60.7,13.6,60.6,14.3,60.3,15.1z M58,12.7c0-0.5-0.1-1-0.3-1.4c-0.2-0.4-0.4-0.8-0.7-1.2c-0.3-0.3-0.7-0.6-1.1-0.8
			C55.5,9.1,55,9,54.5,9c-0.5,0-1,0.1-1.4,0.3c-0.4,0.2-0.8,0.5-1.1,0.8s-0.5,0.7-0.7,1.2C51,11.7,51,12.2,51,12.7v0
			c0,0.5,0.1,1,0.3,1.4c0.2,0.4,0.4,0.8,0.7,1.2s0.7,0.6,1.1,0.8c0.4,0.2,0.9,0.3,1.4,0.3c0.5,0,1-0.1,1.4-0.3
			c0.4-0.2,0.8-0.5,1.1-0.8c0.3-0.3,0.5-0.7,0.7-1.2C57.9,13.7,58,13.3,58,12.7L58,12.7z"/>
		<path class="st0" d="M71.5,18.2c-0.8,0.4-1.8,0.5-2.9,0.5c-0.9,0-1.8-0.2-2.5-0.5c-0.8-0.3-1.4-0.7-1.9-1.3c-0.5-0.5-1-1.2-1.3-1.9
			s-0.5-1.5-0.5-2.4v0c0-0.8,0.2-1.6,0.5-2.4c0.3-0.7,0.7-1.4,1.3-1.9s1.2-1,1.9-1.3c0.7-0.3,1.6-0.5,2.5-0.5c0.5,0,1,0,1.4,0.1
			c0.4,0.1,0.8,0.2,1.2,0.3c0.4,0.1,0.7,0.3,1,0.5C72.6,7.8,73,8,73.3,8.3l-1.6,2C71.4,10,71.2,9.9,71,9.7c-0.2-0.1-0.5-0.3-0.7-0.4
			c-0.2-0.1-0.5-0.2-0.8-0.2C69.2,9.1,68.9,9,68.6,9c-0.5,0-0.9,0.1-1.3,0.3c-0.4,0.2-0.8,0.5-1.1,0.8c-0.3,0.3-0.5,0.7-0.7,1.2
			s-0.3,0.9-0.3,1.4v0c0,0.5,0.1,1,0.3,1.5c0.2,0.5,0.4,0.8,0.7,1.2s0.7,0.6,1.1,0.8c0.4,0.2,0.9,0.3,1.4,0.3c1,0,1.8-0.2,2.4-0.7
			v-1.7h-2.6v-2.2h5.1v5.1C73.1,17.4,72.4,17.9,71.5,18.2z"/>
		<path class="st0" d="M87.6,15.1c-0.3,0.7-0.7,1.4-1.3,1.9c-0.6,0.6-1.2,1-2,1.3c-0.8,0.3-1.6,0.5-2.5,0.5s-1.7-0.2-2.5-0.5
			s-1.4-0.7-2-1.3c-0.6-0.5-1-1.2-1.3-1.9c-0.3-0.7-0.5-1.5-0.5-2.4v0c0-0.8,0.2-1.6,0.5-2.4c0.3-0.7,0.7-1.4,1.3-1.9s1.2-1,2-1.3
			c0.8-0.3,1.6-0.5,2.5-0.5c0.9,0,1.7,0.2,2.5,0.5s1.4,0.7,2,1.3c0.6,0.5,1,1.2,1.3,1.9c0.3,0.7,0.5,1.5,0.5,2.4v0
			C88.1,13.6,88,14.3,87.6,15.1z M85.4,12.7c0-0.5-0.1-1-0.3-1.4c-0.2-0.4-0.4-0.8-0.7-1.2c-0.3-0.3-0.7-0.6-1.1-0.8
			C82.8,9.1,82.4,9,81.9,9c-0.5,0-1,0.1-1.4,0.3c-0.4,0.2-0.8,0.5-1.1,0.8s-0.5,0.7-0.7,1.2c-0.2,0.4-0.3,0.9-0.3,1.4v0
			c0,0.5,0.1,1,0.3,1.4c0.2,0.4,0.4,0.8,0.7,1.2s0.7,0.6,1.1,0.8c0.4,0.2,0.9,0.3,1.4,0.3c0.5,0,1-0.1,1.4-0.3
			c0.4-0.2,0.8-0.5,1.1-0.8c0.3-0.3,0.5-0.7,0.7-1.2C85.3,13.7,85.4,13.3,85.4,12.7L85.4,12.7z"/>
		<g>
			<path class="st1" d="M43.3,24.5c-0.1,0.3-0.3,0.6-0.5,0.8s-0.5,0.4-0.8,0.5c-0.3,0.1-0.7,0.2-1.1,0.2H39v-4.9h1.9
				c0.4,0,0.7,0.1,1.1,0.2c0.3,0.1,0.6,0.3,0.8,0.5c0.2,0.2,0.4,0.5,0.5,0.8c0.1,0.3,0.2,0.6,0.2,1v0C43.5,23.9,43.4,24.2,43.3,24.5z
				M42.4,23.5c0-0.2,0-0.4-0.1-0.6c-0.1-0.2-0.2-0.3-0.3-0.5s-0.3-0.2-0.5-0.3s-0.4-0.1-0.6-0.1h-0.8v3h0.8c0.2,0,0.4,0,0.6-0.1
				s0.3-0.2,0.5-0.3s0.2-0.3,0.3-0.5C42.3,24,42.4,23.8,42.4,23.5L42.4,23.5z"/>
			<path class="st1" d="M48.3,26l-0.4-1.1h-2.1L45.3,26h-1.1l2.1-4.9h1l2.1,4.9H48.3z M46.8,22.3l-0.7,1.6h1.3L46.8,22.3z"/>
			<path class="st1" d="M53.8,25.2c-0.1,0.2-0.2,0.3-0.4,0.5c-0.2,0.1-0.3,0.2-0.6,0.3c-0.2,0.1-0.5,0.1-0.7,0.1
				c-0.4,0-0.7-0.1-1.1-0.2c-0.4-0.1-0.7-0.3-1-0.6l0.6-0.8c0.2,0.2,0.5,0.3,0.7,0.4c0.2,0.1,0.5,0.2,0.8,0.2c0.2,0,0.4,0,0.5-0.1
				c0.1-0.1,0.2-0.2,0.2-0.3v0c0-0.1,0-0.1,0-0.2c0-0.1-0.1-0.1-0.1-0.2c-0.1,0-0.2-0.1-0.3-0.1S52,24.1,51.8,24
				c-0.2-0.1-0.5-0.1-0.7-0.2c-0.2-0.1-0.4-0.2-0.5-0.3c-0.1-0.1-0.2-0.2-0.3-0.4s-0.1-0.4-0.1-0.6v0c0-0.2,0-0.4,0.1-0.6
				c0.1-0.2,0.2-0.3,0.4-0.5c0.2-0.1,0.3-0.2,0.5-0.3c0.2-0.1,0.4-0.1,0.7-0.1c0.4,0,0.7,0.1,1,0.2s0.6,0.3,0.8,0.5l-0.6,0.8
				c-0.2-0.1-0.4-0.3-0.6-0.4C52.3,22,52.1,22,51.9,22s-0.4,0-0.5,0.1c-0.1,0.1-0.2,0.2-0.2,0.3v0c0,0.1,0,0.1,0,0.2
				c0,0.1,0.1,0.1,0.2,0.2c0.1,0,0.2,0.1,0.3,0.1s0.3,0.1,0.5,0.1c0.2,0.1,0.5,0.1,0.7,0.2c0.2,0.1,0.4,0.2,0.5,0.3
				c0.1,0.1,0.2,0.2,0.3,0.4c0.1,0.2,0.1,0.3,0.1,0.6v0C53.9,24.8,53.8,25,53.8,25.2z"/>
			<path class="st1" d="M58.1,26v-2h-2v2H55v-4.9h1.1V23h2v-1.9h1.1V26H58.1z"/>
			<path class="st1" d="M64.5,25.2c-0.1,0.2-0.2,0.3-0.4,0.4c-0.2,0.1-0.4,0.2-0.6,0.3C63.4,26,63.1,26,62.8,26h-2.3v-4.9h2.3
				c0.5,0,0.9,0.1,1.2,0.3c0.3,0.2,0.4,0.5,0.4,0.9v0c0,0.1,0,0.3-0.1,0.4s-0.1,0.2-0.1,0.3c-0.1,0.1-0.1,0.2-0.2,0.2
				c-0.1,0.1-0.2,0.1-0.2,0.2c0.3,0.1,0.5,0.3,0.7,0.4c0.2,0.2,0.2,0.4,0.2,0.8v0C64.7,24.9,64.6,25.1,64.5,25.2z M63.3,22.5
				c0-0.2-0.1-0.3-0.2-0.4C63,22.1,62.8,22,62.6,22h-1.1v1h1c0.2,0,0.4,0,0.6-0.1C63.2,22.9,63.3,22.7,63.3,22.5L63.3,22.5z
				M63.6,24.5c0-0.2-0.1-0.3-0.2-0.4C63.3,24,63.1,24,62.8,24h-1.2V25h1.3c0.2,0,0.4,0,0.6-0.1C63.5,24.8,63.6,24.7,63.6,24.5
				L63.6,24.5z"/>
			<path class="st1" d="M70.5,24.5c-0.1,0.3-0.3,0.6-0.5,0.8c-0.2,0.2-0.5,0.4-0.8,0.5c-0.3,0.1-0.7,0.2-1,0.2s-0.7-0.1-1-0.2
				s-0.6-0.3-0.8-0.5s-0.4-0.5-0.5-0.8s-0.2-0.6-0.2-1v0c0-0.3,0.1-0.7,0.2-1c0.1-0.3,0.3-0.6,0.5-0.8c0.2-0.2,0.5-0.4,0.8-0.5
				c0.3-0.1,0.7-0.2,1-0.2c0.4,0,0.7,0.1,1,0.2c0.3,0.1,0.6,0.3,0.8,0.5c0.2,0.2,0.4,0.5,0.5,0.8c0.1,0.3,0.2,0.6,0.2,1v0
				C70.7,23.9,70.7,24.2,70.5,24.5z M69.6,23.5c0-0.2,0-0.4-0.1-0.6s-0.2-0.3-0.3-0.5c-0.1-0.1-0.3-0.3-0.5-0.3
				C68.5,22,68.3,22,68.1,22c-0.2,0-0.4,0-0.6,0.1s-0.3,0.2-0.5,0.3c-0.1,0.1-0.2,0.3-0.3,0.5s-0.1,0.4-0.1,0.6v0
				c0,0.2,0,0.4,0.1,0.6c0.1,0.2,0.2,0.4,0.3,0.5c0.1,0.1,0.3,0.3,0.5,0.3c0.2,0.1,0.4,0.1,0.6,0.1c0.2,0,0.4,0,0.6-0.1
				c0.2-0.1,0.3-0.2,0.5-0.3c0.1-0.1,0.2-0.3,0.3-0.5C69.6,24,69.6,23.8,69.6,23.5L69.6,23.5z"/>
			<path class="st1" d="M75.5,26l-0.4-1.1H73L72.5,26h-1.1l2.1-4.9h1l2.1,4.9H75.5z M74,22.3l-0.7,1.6h1.3L74,22.3z"/>
			<path class="st1" d="M80.5,26l-1.1-1.6h-0.8V26h-1.1v-4.9h2.2c0.6,0,1,0.1,1.4,0.4c0.3,0.3,0.5,0.7,0.5,1.2v0c0,0.4-0.1,0.7-0.3,1
				c-0.2,0.2-0.4,0.4-0.8,0.5l1.2,1.8H80.5z M80.6,22.8c0-0.2-0.1-0.4-0.2-0.5s-0.4-0.2-0.6-0.2h-1.1v1.4h1.1c0.3,0,0.5-0.1,0.6-0.2
				C80.5,23.1,80.6,23,80.6,22.8L80.6,22.8z"/>
			<path class="st1" d="M87.1,24.5c-0.1,0.3-0.3,0.6-0.5,0.8c-0.2,0.2-0.5,0.4-0.8,0.5c-0.3,0.1-0.7,0.2-1.1,0.2h-1.9v-4.9h1.9
				c0.4,0,0.7,0.1,1.1,0.2c0.3,0.1,0.6,0.3,0.8,0.5c0.2,0.2,0.4,0.5,0.5,0.8c0.1,0.3,0.2,0.6,0.2,1v0C87.3,23.9,87.2,24.2,87.1,24.5z
				M86.2,23.5c0-0.2,0-0.4-0.1-0.6s-0.2-0.3-0.3-0.5s-0.3-0.2-0.5-0.3c-0.2-0.1-0.4-0.1-0.6-0.1h-0.8v3h0.8c0.2,0,0.4,0,0.6-0.1
				c0.2-0.1,0.3-0.2,0.5-0.3s0.2-0.3,0.3-0.5C86.1,24,86.2,23.8,86.2,23.5L86.2,23.5z"/>
		</g>
	</g>
	<path class="st2" d="M11.5,3c2.8-1.6,6.2-1.6,9,0l4.9,2.8c2.8,1.6,4.5,4.6,4.5,7.8v5.6c0,3.2-1.7,6.2-4.5,7.8l-4.9,2.8
		c-2.8,1.6-6.2,1.6-9,0L6.6,27c-2.8-1.6-4.5-4.6-4.5-7.8v-5.6c0-3.2,1.7-6.2,4.5-7.8L11.5,3z"/>
</svg>
