<?xml version="1.0" encoding="utf-8"?>
<!-- Generator: Adobe Illustrator 26.1.0, SVG Export Plug-In . SVG Version: 6.00 Build 0)  -->
<svg version="1.1" id="Layer_1" xmlns="http://www.w3.org/2000/svg" xmlns:xlink="http://www.w3.org/1999/xlink" x="0px" y="0px"
	 viewBox="0 0 32 32" style="enable-background:new 0 0 32 32;" xml:space="preserve">
<style type="text/css">
	.st0{fill:#24DA77;}
	.st1{fill:#FFFFFF;}
</style>
<path class="st0" d="M11.5,2.6c2.8-1.6,6.2-1.6,9,0l4.9,2.8c2.8,1.6,4.5,4.6,4.5,7.8v5.6c0,3.2-1.7,6.2-4.5,7.8l-4.9,2.8
	c-2.8,1.6-6.2,1.6-9,0l-4.9-2.8C3.9,25,2.1,22,2.1,18.8v-5.6C2.1,10,3.9,7,6.6,5.4L11.5,2.6z"/>
<g>
	<path class="st1" d="M23.5,19c-0.4,0.9-1,1.8-1.7,2.4c-0.7,0.7-1.6,1.2-2.6,1.6c-1,0.4-2.1,0.6-3.3,0.6h-6V8.3h6
		c1.2,0,2.3,0.2,3.3,0.6c1,0.4,1.9,0.9,2.6,1.6c0.7,0.7,1.3,1.5,1.7,2.4c0.4,0.9,0.6,1.9,0.6,3v0C24.1,17.1,23.9,18.1,23.5,19z
		 M20.6,16c0-0.7-0.1-1.3-0.3-1.9s-0.5-1.1-0.9-1.5c-0.4-0.4-0.9-0.7-1.5-1s-1.2-0.3-1.9-0.3h-2.6v9.3h2.6c0.7,0,1.3-0.1,1.9-0.3
		c0.6-0.2,1.1-0.5,1.5-0.9c0.4-0.4,0.7-0.9,0.9-1.5S20.6,16.7,20.6,16L20.6,16z"/>
</g>
</svg>
