<?xml version="1.0" encoding="utf-8"?>
<!-- Generator: Adobe Illustrator 26.1.0, SVG Export Plug-In . SVG Version: 6.00 Build 0)  -->
<svg version="1.1" id="Layer_1" xmlns="http://www.w3.org/2000/svg" xmlns:xlink="http://www.w3.org/1999/xlink" x="0px" y="0px"
	 viewBox="0 0 52 58" style="enable-background:new 0 0 52 58;" xml:space="preserve">
<style type="text/css">
	.st0{fill:none;stroke:#FFFFFF;stroke-width:12;}
	.st1{fill:none;stroke:#24DA77;stroke-width:12;}
</style>
<path class="st0" d="M32.3,51.8c3.8-0.5,7.4-2,10.5-4.3c0.9-0.6,0.9-1.9,0.2-2.7l0,0c-0.7-0.8-1.9-0.9-2.8-0.2
	c-2.5,1.8-5.4,3-8.4,3.4c-3.7,0.5-7.5,0-10.8-1.6s-6.2-4.1-8.2-7.3c-2-3.2-2.9-6.9-2.8-10.6c0.1-3.7,1.3-7.3,3.4-10.4
	c2.1-3.1,5.1-5.4,8.6-6.8c3.5-1.4,7.3-1.7,10.9-1c3,0.6,5.8,2,8.2,3.9c0.8,0.7,2.1,0.7,2.8-0.1l0,0c0.8-0.8,0.8-2-0.1-2.7
	c-2.9-2.5-6.4-4.2-10.2-4.9c-4.4-0.9-9-0.5-13.1,1.2c-4.2,1.7-7.8,4.5-10.3,8.2c-2.6,3.7-4,8-4.2,12.5c-0.1,4.5,1,8.9,3.4,12.7
	c2.4,3.8,5.8,6.9,9.8,8.8S27.8,52.4,32.3,51.8z"/>
<path class="st1" d="M32.3,51.8c3.8-0.5,7.4-2,10.5-4.3c0.9-0.6,0.9-1.9,0.2-2.7l0,0c-0.7-0.8-1.9-0.9-2.8-0.2
	c-2.5,1.8-5.4,3-8.4,3.4c-3.7,0.5-7.5,0-10.8-1.6c-3.4-1.6-6.2-4.1-8.2-7.3c-1.6-2.6-2.6-5.6-2.8-8.7c-0.1-1.1-0.9-2-2-2l0,0
	c-1.1,0-2,0.8-1.9,1.9C6.2,34,7.4,37.8,9.4,41c2.3,3.8,5.8,6.9,9.8,8.8C23.3,51.7,27.8,52.4,32.3,51.8z"/>
</svg>
